<?xml version="1.0" standalone="yes"?>
<svg xmlns="http://www.w3.org/2000/svg" width="332" height="97">
<path style="fill:#ffffff; stroke:none;" d="M0 0L0 97L332 97L332 0L0 0z"/>
<path style="fill:#010101; stroke:none;" d="M16 3L16 8L29 8L45 45L46 45L57.7415 19L63.3935 9.02778L83 8L55.6373 62L55 95L97 95L97 94C82.2779 89.6272 77.7159 70.4177 90.0401 60.5324C98.5108 53.7381 109.857 55 120 55C119.502 44.1192 104.767 36.6163 102 50L84 50C85.1586 27.6669 119.432 21.59 132.66 37.0432C143.575 49.7943 137.844 78.9926 140 95L148 95C148 73.4794 168.159 63.5492 176 45L149 45L149 30L201 30C200.998 49.6024 180.906 64.1459 171 80L202 80L202 95L212 95L212 30L230 30L230 95L259 95L259 94C236.458 84.0852 233.082 35.4723 261 29.3904C268.904 27.6684 275.197 30.4212 282 34L282 3L16 3z"/>
<path style="fill:#ffffff; stroke:none;" d="M216.044 4.74229C204.202 9.56731 214.441 26.5643 225.956 21.3326C237.881 15.9145 227.512 0.0696335 216.044 4.74229z"/>
<path style="fill:#010101; stroke:none;" d="M16 26L16 95L36 95C36 69.5665 33.2165 46.5644 16 26M267.04 44.7423C253.427 50.2126 257.422 86.4814 275.995 79.2577C287.667 74.7183 285.625 37.2745 267.04 44.7423M120 66C117.01 66 113.985 65.8707 111 66.0432C88.6536 67.3347 112.57 91.8716 119.397 73.9846C120.331 71.5354 119.998 68.5706 120 66M311 76L311 81L312 81L316 77L311 76z"/>
<path style="fill:#cf010f; stroke:none;" d="M316.044 76.7423C304.757 81.3372 313.289 99.0066 324.956 94.2577C336.26 89.6567 327.921 71.9072 316.044 76.7423z"/>
<path style="fill:#010101; stroke:none;" d="M325 76L325 77L329 81L330 81L330 76L325 76M282 89L274 94L274 95L284 95L282 89M112 94L112 95L122 95L121 90L112 94M311 90L311 95L316 95L316 94L311 90M329 90L325 94L325 95L330 95L329 90z"/>
</svg>
